<svg xmlns="http://www.w3.org/2000/svg" width="24" height="24" viewBox="0 0 1254 1254"><path fill="currentColor" d="M591.5 209h47l1 1h12l1 1h7l1 1h8l1 1 11 1 1 1h4l1 1h4l9 3 8 1 4 2 7 1 24 8 3 2 5 1 27 13 4 1 2 2 9 4 20 12 29 21 31.5 28.5 23 26 23 32 8 15 2 2 13 26v2l6 13 1 5 2 3 4 12v3l3 7v3l2 4v3l1 1v3l3 9v4l2 5v5l1 1 1 11 1 1 1 16 1 1v13l1 1v37l-1 1v13l-1 1-1 17-1 1v5l-1 1v5l-1 1-1 10-1 1v3l-1 1v3l-1 1-3 15-3 7v3l-3 9-2 3-1 5-2 3-1 5-18 38-12 20-19 27-17.5 19.5-3 1-5-2-6.5-6.5-39-43-2-4v-5l3-6 6-7 17-27 15-31 1-5 2-3 1-5 2-3 4-12v-3l1-1v-3l1-1v-3l3-9v-4l2-6v-5l1-1v-7l1-1v-10l1-1v-46l-1-1v-9l-1-1-1-13-1-1v-4l-1-1-1-8-3-8-1-7-3-9-2-3-2-8-10-22-2-2-8-16-15-22q-17.3-22.7-38.5-41.5l-24-19-22-14-28-14h-2l-13-6-15-5h-3l-4-2-11-2-1-1h-4l-1-1h-4l-6-2h-5l-1-1h-6l-1-1h-10l-1-1h-43l-1 1h-9l-1 1h-6l-1 1-11 1-1 1h-4l-9 3h-4l-7 3h-3l-15 5-17 8h-2l-28 15-25 17-31.5 28.5-14 16-17 24-9 15-16 34-1 5-2 3-3 9v3l-2 4v3l-1 1v3l-1 1v3l-3 9v4l-1 1-1 12-1 1v8l-1 1v12l-1 1v20l1 1v13l1 1v9l1 1 1 12 1 1v4l3 9v4l1 1v3l2 4v3l4 12 2 3 3 10 4 7v2l9 18 16 26 18 23 27.5 27.5 17 14 17 12 15 9 7 3 2 2 25 11 21 7h3l9 3h4l1 1h4l1 1h5l1 1 14 1 1 1h11l1 1h33l1-1h11l1-1h7l1-1 12-1 1-1 9-1 1-1h3l9-3h8l3 1 11.5 11.5 9 11 34 36q1.8 2.2 1 7l-2.5 3.5-14 6-21 7h-3l-4 2h-3l-1 1h-3l-1 1h-3l-9 3-14 2-1 1h-6l-1 1h-6l-1 1h-7l-1 1h-11l-1 1h-46l-1-1h-11l-1-1h-8l-1-1-12-1-1-1h-5l-1-1h-4l-5-2h-4l-1-1-11-2-4-2h-3l-4-2h-3l-9-4-8-2-8-4h-2l-5-3h-2l-35-18-31-20-27-21-30.5-29.5-22-26-20-29-20-36v-2l-5-9v-2l-3-5-3-10-2-3-5-15v-3l-3-7v-3l-1-1v-3l-3-9-2-14-1-1-1-11-1-1-1-16-1-1v-12l-1-1v-45l1-1v-11l1-1 1-15 1-1 1-10 1-1v-5l2-5v-4l2-5v-4l2-4v-3l2-4v-3l6-18 2-3 4-12 3-5v-2l18-35 19-29 19-24 27.5-28.5 26-22 26-18 15-9 11-5 2-2 19-9h2l5-3h2l13-6 18-6 10-2 4-2 7-1 1-1h4l1-1h4l1-1 9-1 1-1h5l1-1h5l1-1h6l1-1h9l1-1h10z"/><path fill="currentColor" d="M545.5 365h11l1 1h6l1 1h4l6 2q11.7 4.8 19.5 13.5l4 5 6 12v3l2 5v5l1 1v281l-1 1v6q-1.7.8-1 4l-2 3-3 9q-6.5 11-16.5 18.5l-9 5-12 4q-4.8-1.2-6 1h-16l-1-1-9-1-10-4-9-6-8.5-8.5-9-15-2-8-3.5-3.5-4-1-9-6-9.5-9.5-5-7-5-10-2-10-1-1v-6l-3.5-3.5h-5l-12-4-12-7-8.5-7.5q-10.4-11.1-16-27v-3l-2-5v-4l-1-1v-19l1-1v-5l1-1v-3l3-9 5-10q5.6-9.4 13.5-16.5l10.5-7.5v-3l-2-4-1-8-1-1v-7l-1-1v-11l1-1v-6l1-1 2-10 6-12 10.5-13.5 7-6 12-7 12-4q4 1 5-1h7l2.5-2.5 2-8 5-11q6.4-10.1 15.5-17.5l7-5 10-5 6-2h4l1-1h6zm-.5 28-1 1-6 1-9 5q-9 6-13 17l-1 6-1 1v9l-3 7-7 5h-20q-1 2-5 1l-14 7-9 10-3 5-3 9v18q2 0 1 4l9 18v8l-2 4-5 5-5 1-12 7-11 13v2l-4 9v4l-1 1v12q2 1 1 5l6 14 4 5 13 9 6 2h6l2-2 2-5 6-9 11-11 9-6 9-4 7-1 1-1h6l1-1h27l5 2 6 8v8l-1 3-5 5-5 2h-28l-9 3-5 3-7 7-4 6-4 12v12l1 1v3l2 6 3 5 12 10 7 3h3l5 3 4 7 1 10 5 10 7 6 8 4 3 1h8l1 1 11-2 6-3 9-10 3-9V577l-1-1-1-6-3-5q-4-7-12-10l-6-1-1-1h-8l-5-2h-3l-13-6-7-5-7-6-7-10-5-12-1-8-1-1v-11l3-6 7-5h9l2 1 6 8 2 16 5 9q5 6 14 9l7 1 1 1h7l9 3q4 1 6-1l3-4V416l-1-1-1-6-3-5q-4-6-10-9l-6-2zM676.5 365h9l1 1h6l1 1h3l9 3 12 7 10.5 9.5 7 10 4 8 3 11 2.5 2.5h7q1 2 5 1l16 6 9 6 12.5 12.5q6.8 9.2 11 21l1 8 1 1v7l1 1v8l-1 1v8l-1 1v4l-3 8v3l15 12q8.7 9.3 14 22l2 6v3l1 1v3l1 1v6l1 1v14l-1 1-1 11-3 9q-5.7 13.8-15.5 23.5l-15 11-12 5-9 1-3.5 3.5v7l-4 12q-5.2 11.8-14.5 19.5l-11 7-6 2h-7l-3-1-5.5-4.5-2-4v-7l4.5-7.5 11-5 6.5-6.5 4-9v-12l-6.5-10.5-10-5h-12l-5 2-10 7-7 1-5-2-5.5-5.5-1-3v-6l2-5 6.5-6.5 11-6 9-3h6l1-1h9l1 1h6q.8 1.8 4 1l11 5q10.1 5.9 17 15l4 1 1-1 7-1 9-5 4-4h1.5v-1.5q5.3-4.2 8-11l3-9q-1.2-4.7 1-6v-8l-1-1v-5l-1-1-1-6-5-9-5.5-6.5-8-6-12-5-3.5-3.5-3-6v-6l7-13 2-6v-3l1-1v-18l-6-14-7.5-8.5-12-7-6-1-1-1h-21q-5.5-2-8.5-6.5l-2-5v-11l-3-9-3-5-9.5-9.5-10-5q-4 1-5-1h-9q-1 2-5 1l-6 3-7.5 7.5-4 9-1 13 1 1v16l-1 1v9l1 1v19l-1 1v54l-5.5 6.5-4 2h-7l-3-1-5.5-5.5-2-5v-113l1-1 1-9 5-12 10.5-12.5 15-9 10-2 1-1h6z"/><path fill="currentColor" d="M713.5 482h8l6.5 4.5 3 5v27q-2.2 1.3-1 6l-6 15-7 10-6.5 6.5-14 9h-2l-3 2-7 1-1 1h-4l-9 4-9.5 8.5-5 9-1 6-1 1v100l4 9 7.5 7.5 8 4h15l1-1q4.7 1.3 6-1l22-1 1 1h8q1.3 2.3 6 1l15 5 10 5 11 7 17.5 15.5 177 196 4 6 1 3v6l-4.5 8.5-8 4h-77l-8-3-8.5-8.5-86-98-61-67-5-7-13-14-14-18-4-7-4.5-4.5-10-2-3-2h-2l-8-4-8-7H642v-1.5l-5-5-6-10v-2l-3-6q.7-3.2-1-4v-7l-1-1v-96l1-1v-6q1.7-.7 1-4l7-17q6.8-10.7 16.5-18.5l15-8 18-4q8.4-3.6 13.5-10.5l4-8 1-7 1-1v-22q1.7-4.8 5.5-7.5z"/></svg>